<svg xmlns="http://www.w3.org/2000/svg" version="1.1" xmlns:xlink="http://www.w3.org/1999/xlink" xmlns:svgjs="http://svgjs.dev/svgjs" width="2000" height="2250" viewBox="0 0 2000 2250"><g transform="matrix(1,0,0,1,3.410605131648481e-13,0)"><svg viewBox="0 0 320 360" data-background-color="#ffffff" preserveAspectRatio="xMidYMid meet" height="2250" width="2000" xmlns="http://www.w3.org/2000/svg" xmlns:xlink="http://www.w3.org/1999/xlink"><g id="tight-bounds" transform="matrix(1,0,0,1,0,0)"><svg viewBox="0 0 320 360" height="360" width="320"><g><svg></svg></g><g><svg viewBox="0 0 320 360" height="360" width="320"><g><path xmlns="http://www.w3.org/2000/svg" d="M20.961 227.22l3.726 4.658-1.863-6.056c-0.466-2.795-3.726 0.466-1.863 1.398M25.153 224.425c1.397 2.329 2.795 4.658 2.795 6.987 0 3.261 2.795 4.658 5.123 5.589-3.261-3.726-5.124-13.974-7.918-12.576M204.017 26.929c7.918 0 15.371-0.932 23.756 0.931 20.495 5.124 37.729 15.371 49.374 29.811l32.606 52.169c1.397 13.042 4.192 27.482 3.726 43.319 3.261 0 2.795-4.658 6.521-5.59-3.726 9.316-5.59 20.961-6.521 34.469-2.329-7.453 0-18.632 0.466-24.687-3.261 5.124-5.124 1.397-5.124-0.932 0.466-3.726-1.397-3.261-2.795-4.658-5.124-4.658-8.384-9.782-12.11-17.7 2.329-6.055 2.795-14.905-4.658-19.563-2.329-1.397-5.124-3.726-6.521-7.453-1.863-5.124-5.124-11.179-4.193-19.097 0.466-2.329-6.987 5.124-11.179 1.863-18.166-12.576-36.332-27.016-58.224-39.127-11.645 0-20.029-4.192-24.221-9.316-3.726-4.658-0.932-10.713 4.658-11.179 3.261 0 6.987-0.932 9.782 0.932 0.466-1.863 2.329-4.192 4.657-4.192M157.904 16.215l0.932 0.466c4.658 0.932 6.987 7.453 12.11 5.124 0 3.261 0.466 6.521-0.466 8.85-1.397 3.726-5.59 3.726-8.85 3.726-31.208-1.863-49.374 11.179-68.471 22.358-5.124 3.261-10.713 5.59-14.906 9.782-20.029 18.632-41.921 35.866-47.045 70.335l-4.192 38.195c-0.466 4.192-5.124 8.384-4.192 13.508l3.26 22.824c-3.261-3.261-5.124 0.932-4.192 2.795 0.466 1.397 2.329 6.055 5.124 1.863 3.726 6.987 7.453 20.495 12.576 26.55 15.837 18.632 36.332 35.4 53.101 52.169 4.192-0.932 7.453-0.932 8.384-3.727 1.397 2.795-1.397 5.59-3.726 6.056 7.453 4.658 15.837 8.85 27.016 9.781 14.44 0.932 27.948 3.261 40.524 6.522 6.521-1.863 13.042-2.795 20.029-3.261 2.329 0 3.726-3.726 6.521-4.658l0.466-4.658c2.795 4.192 2.329-1.397 0.466-4.192 3.261 2.795 4.192 5.124 5.589 6.987 0-1.397 3.726-6.521 3.727-0.466l0.931-6.055c1.397-0.932 1.863 5.124 3.261 0.931 1.397-4.192 4.192-0.932 6.987-2.329-0.932 1.863-0.466 5.59 2.794 3.261l3.727-3.261c2.329 5.59 6.055 3.261 7.918 2.329 20.495-13.042 40.99-28.413 60.553-43.784l-0.466 6.055 2.329-7.453c2.329 2.329 4.192 0.466 5.124-0.931 2.795-4.658 6.521-9.316 12.577-13.508-7.453 20.029-16.303 35.866-27.482 48.908l-4.658 5.59c0 3.261-0.932 7.453-4.658 7.918-1.863 0.466-5.59-0.932-8.384 1.863-1.397 1.863 3.261 5.59-0.466 2.795-3.261-2.329-6.521 0-10.248 0.932-2.795 0.932 1.863 3.726 2.795 5.589 0.932 1.863 1.863 3.726 1.398 6.056l-5.124-5.59c-6.055 3.261-9.782 9.316-14.906 13.974-2.329 1.863-1.397 5.124-1.397 7.918-3.261 0-6.987-0.932-8.85 0.932-1.397 1.863-0.932 4.658-0.932 7.453-4.658-0.466-5.124-7.453-9.315-6.056-4.192 0.932-8.85 1.397-12.577 3.727 2.795 5.59-4.658 2.329-3.726 3.26-6.987-4.192-13.042-7.453-20.495-4.658-15.837-5.124-35.4-2.795-49.84-0.931 0-2.329 0.466-4.658-0.466-5.124-0.932 2.329-3.726 1.397-3.26 1.397-8.85-6.055-17.7-9.782-27.016-14.905-8.384 0.932-16.303-3.261-18.632-5.59-6.521-6.055-13.974-2.795-20.029-4.192-13.042-3.261-17.7-16.769-19.098-26.084-0.932-4.658-4.658-6.521-6.055-6.056-6.055-19.563-15.371-37.263-22.824-55.429-1.863-4.658-1.397-9.316-1.397-14.44 2.329 0.932 4.658 0.466 4.192-2.794-2.329-15.371-7.918-27.016-13.974-38.195 3.261-15.837 3.726-34.469 11.179-48.443 6.521-12.576 18.632-19.098 27.016-29.811 2.795-3.726 2.795-8.85 5.59-12.11 9.316-9.316 18.632-19.098 28.879-27.482 4.658-3.726 10.247 0 17.234-1.397 2.329-8.384 11.645-15.837 20.495-13.508 3.726 0.932 11.179-8.85 13.508-9.782 3.726-1.397 1.863 3.726 1.863 6.987 8.85-6.987 20.961-10.713 32.14-14.906" fill="#ff0000" fill-rule="nonzero" stroke="none" stroke-width="1" stroke-linecap="butt" stroke-linejoin="miter" stroke-miterlimit="10" stroke-dasharray="" stroke-dashoffset="0" font-family="none" font-weight="none" font-size="none" text-anchor="none" style="mix-blend-mode: normal" data-fill-palette-color="tertiary"></path></g><g transform="matrix(1,0,0,1,110.90751834014668,90)"><svg viewBox="0 0 98.18496331970664 180" height="180" width="98.18496331970664"><g><svg viewBox="0 0 98.18496331970664 180" height="180" width="98.18496331970664"><g><svg viewBox="0 0 192 351.9887244594355" height="180" width="98.18496331970664"><g transform="matrix(1,0,0,1,0,202.15594853970308)"><svg viewBox="0 0 192 149.83277591973243" height="149.83277591973243" width="192"><g id="textblocktransform"><svg viewBox="0 0 192 149.83277591973243" height="149.83277591973243" width="192" id="textblock"><g><svg viewBox="0 0 192 149.83277591973243" height="149.83277591973243" width="192"><g transform="matrix(1,0,0,1,0,0)"><svg width="192" viewBox="1.75 -35 44.849998474121094 35" height="149.83277591973243" data-palette-color="#ff0000"><path d="M1.75 0L11.8 0 11.8-1.95 7.85-1.95 7.85-28.85Q7.85-29.3 7.83-29.83 7.8-30.35 7.75-30.8L7.75-30.8Q8.05-30.35 8.22-30.13 8.4-29.9 8.7-29.45L8.7-29.45 24.1-9.4 39.05-28.9Q39.45-29.45 39.75-29.85 40.05-30.25 40.45-30.8L40.45-30.8Q40.4-30.2 40.38-29.83 40.35-29.45 40.35-28.85L40.35-28.85 40.35-1.95 36.55-1.95 36.55 0 46.6 0 46.6-1.95 42.4-1.95 42.4-33.05 46.45-33.05 46.45-35 41.2-35Q36.9-29.45 32.65-23.88 28.4-18.3 24.1-12.75L24.1-12.75Q20.4-17.5 15.9-23.38 11.4-29.25 7-35L7-35 1.75-35 1.75-33.05 5.8-33.05 5.8-1.95 1.75-1.95 1.75 0Z" opacity="1" transform="matrix(1,0,0,1,0,0)" fill="#ff0000" class="wordmark-text-0" data-fill-palette-color="primary" id="text-0"></path></svg></g></svg></g></svg></g></svg></g><g transform="matrix(1,0,0,1,36.672,0)"><svg viewBox="0 0 118.656 180.29175054639205" height="180.29175054639205" width="118.656"><g><svg xmlns="http://www.w3.org/2000/svg" xmlns:xlink="http://www.w3.org/1999/xlink" version="1.1" x="0" y="0" viewBox="20.384000778198242 5 59.23199462890625 90" enable-background="new 0 0 100 100" xml:space="preserve" height="180.29175054639205" width="118.656" class="icon-icon-0" data-fill-palette-color="accent" id="icon-0"><g fill="#ed2647" data-fill-palette-color="accent"><path fill="none" d="M50 24.046c-5.825 0-10.565 4.739-10.565 10.565S44.175 45.176 50 45.176c0.459 0 0.916-0.033 1.369-0.093 0.154-0.02 0.304-0.062 0.456-0.089 0.297-0.053 0.595-0.103 0.886-0.182 0.179-0.048 0.352-0.117 0.528-0.174 0.259-0.084 0.519-0.165 0.771-0.269 0.182-0.075 0.356-0.169 0.533-0.255 0.226-0.109 0.453-0.216 0.673-0.341 0.097-0.068 0.2-0.127 0.309-0.177 0.056-0.035 0.109-0.073 0.164-0.108 0.416-0.267 0.815-0.554 1.185-0.871 0.031-0.027 0.06-0.056 0.091-0.083 0.387-0.338 0.752-0.699 1.083-1.089l0.192-0.23c0.027-0.033 0.049-0.069 0.076-0.102 0.909-1.16 1.556-2.458 1.915-3.845 0.016-0.063 0.026-0.129 0.041-0.192 0.053-0.223 0.105-0.447 0.144-0.675 0.033-0.196 0.053-0.395 0.075-0.594 0.011-0.098 0.029-0.194 0.037-0.292 0.025-0.298 0.038-0.6 0.038-0.903C60.566 28.786 55.826 24.046 50 24.046z"></path><path fill="none" d="M50 8.83c-7.753 0-25.786 2.737-25.786 28.087 0 24.227 20.313 47.563 25.785 53.409 5.471-5.849 25.787-29.207 25.787-53.409C75.786 14.745 59.577 8.83 50 8.83zM61.217 43.623c-0.003 0.003-0.006 0.007-0.007 0.009l-0.247 0.295c-1.017 1.196-2.23 2.219-3.604 3.039-0.002 0.001-0.004 0.003-0.005 0.004-0.001 0.001-0.003 0.002-0.004 0.002l-0.002 0.001c-0.006 0.003-0.011 0.007-0.017 0.01-2.226 1.322-4.762 2.021-7.331 2.021-7.937 0-14.394-6.457-14.394-14.394S42.063 20.217 50 20.217s14.395 6.457 14.395 14.394C64.395 37.874 63.267 41.075 61.217 43.623z"></path><path d="M50 5c-6.948 0-29.616 2.302-29.616 31.916 0 29.448 27.121 56.403 28.275 57.536C49.031 94.818 49.516 95 50 95s0.969-0.182 1.341-0.548c1.155-1.133 28.275-28.087 28.275-57.536C79.616 11.67 60.244 5 50 5zM49.999 90.325c-5.473-5.846-25.785-29.181-25.785-53.409C24.214 11.567 42.247 8.83 50 8.83c9.577 0 25.786 5.915 25.786 28.087C75.786 61.118 55.47 84.476 49.999 90.325z" fill="#ed2647" data-fill-palette-color="accent"></path><path d="M50 20.217c-7.937 0-14.394 6.457-14.394 14.394S42.063 49.005 50 49.005c2.569 0 5.105-0.699 7.331-2.021 0.006-0.004 0.011-0.007 0.017-0.01l0.002-0.001c0.001-0.001 0.003-0.002 0.004-0.002 0.002-0.001 0.004-0.003 0.005-0.004 1.374-0.82 2.586-1.843 3.604-3.039l0.247-0.295c0.002-0.003 0.005-0.006 0.007-0.009 2.05-2.548 3.178-5.749 3.178-9.012C64.395 26.674 57.937 20.217 50 20.217zM60.528 35.514c-0.008 0.098-0.026 0.194-0.037 0.292-0.022 0.199-0.042 0.398-0.075 0.594-0.039 0.227-0.091 0.451-0.144 0.675-0.015 0.064-0.025 0.129-0.041 0.192-0.359 1.387-1.006 2.685-1.915 3.845-0.026 0.034-0.049 0.069-0.076 0.102l-0.192 0.23c-0.332 0.39-0.697 0.751-1.083 1.089-0.031 0.027-0.059 0.056-0.091 0.083-0.371 0.317-0.769 0.604-1.185 0.871-0.055 0.036-0.108 0.073-0.164 0.108-0.109 0.05-0.212 0.109-0.309 0.177-0.219 0.125-0.446 0.232-0.673 0.341-0.178 0.085-0.352 0.179-0.533 0.255-0.252 0.104-0.512 0.185-0.771 0.269-0.176 0.058-0.349 0.126-0.528 0.174-0.292 0.078-0.589 0.129-0.886 0.182-0.153 0.027-0.302 0.068-0.456 0.089-0.453 0.06-0.91 0.093-1.369 0.093-5.825 0-10.565-4.739-10.565-10.565S44.175 24.046 50 24.046c5.826 0 10.566 4.739 10.566 10.565C60.566 34.914 60.553 35.216 60.528 35.514z" fill="#ed2647" data-fill-palette-color="accent"></path></g></svg></g></svg></g><g></g></svg></g></svg></g></svg></g></svg></g><defs></defs></svg><rect width="320" height="360" fill="none" stroke="none" visibility="hidden"></rect></g></svg></g></svg>